<svg xmlns="http://www.w3.org/2000/svg" width="1200" height="1200" viewBox="0 0 1200 1200"><defs><linearGradient id="b4" x1="0" y1="0" x2="1" y2="1"><stop offset="0" stop-color="#FA6863"/><stop offset="1" stop-color="#D38C49"/></linearGradient></defs><rect width="1200" height="1200" fill="#0A0A0A"/><rect x="80" y="110" width="118" height="118" rx="10" fill="#141414" stroke="#262626" stroke-width="1.4"/><rect x="206" y="110" width="118" height="118" rx="10" fill="#141414" stroke="#262626" stroke-width="1.4"/><rect x="332" y="110" width="118" height="118" rx="10" fill="#141414" stroke="#262626" stroke-width="1.4"/><rect x="458" y="110" width="118" height="118" rx="10" fill="#141414" stroke="#262626" stroke-width="1.4"/><rect x="584" y="110" width="118" height="118" rx="10" fill="#141414" stroke="#262626" stroke-width="1.4"/><rect x="710" y="110" width="118" height="118" rx="10" fill="#141414" stroke="#262626" stroke-width="1.4"/><rect x="836" y="110" width="118" height="118" rx="10" fill="#141414" stroke="#262626" stroke-width="1.4"/><rect x="962" y="110" width="118" height="118" rx="10" fill="#141414" stroke="#FA6863" stroke-width="1.4"/><rect x="80" y="236" width="118" height="118" rx="10" fill="#141414" stroke="#262626" stroke-width="1.4"/><rect x="206" y="236" width="118" height="118" rx="10" fill="#141414" stroke="#262626" stroke-width="1.4"/><rect x="332" y="236" width="118" height="118" rx="10" fill="url(#b4)"/><rect x="458" y="236" width="118" height="118" rx="10" fill="#141414" stroke="#262626" stroke-width="1.4"/><rect x="584" y="236" width="118" height="118" rx="10" fill="#141414" stroke="#FA6863" stroke-width="1.4"/><rect x="710" y="236" width="118" height="118" rx="10" fill="#141414" stroke="#262626" stroke-width="1.4"/><rect x="836" y="236" width="118" height="118" rx="10" fill="#141414" stroke="#262626" stroke-width="1.4"/><rect x="962" y="236" width="118" height="118" rx="10" fill="#141414" stroke="#262626" stroke-width="1.4"/><rect x="80" y="362" width="118" height="118" rx="10" fill="#141414" stroke="#262626" stroke-width="1.4"/><rect x="206" y="362" width="118" height="118" rx="10" fill="url(#b4)"/><rect x="332" y="362" width="118" height="118" rx="10" fill="#141414" stroke="#262626" stroke-width="1.4"/><rect x="458" y="362" width="118" height="118" rx="10" fill="#141414" stroke="#FA6863" stroke-width="1.4"/><rect x="584" y="362" width="118" height="118" rx="10" fill="#141414" stroke="#262626" stroke-width="1.4"/><rect x="710" y="362" width="118" height="118" rx="10" fill="#141414" stroke="#262626" stroke-width="1.4"/><rect x="836" y="362" width="118" height="118" rx="10" fill="#141414" stroke="#FA6863" stroke-width="1.4"/><rect x="962" y="362" width="118" height="118" rx="10" fill="#141414" stroke="#262626" stroke-width="1.4"/><rect x="80" y="488" width="118" height="118" rx="10" fill="#141414" stroke="#262626" stroke-width="1.4"/><rect x="206" y="488" width="118" height="118" rx="10" fill="#141414" stroke="#262626" stroke-width="1.4"/><rect x="332" y="488" width="118" height="118" rx="10" fill="url(#b4)"/><rect x="458" y="488" width="118" height="118" rx="10" fill="#141414" stroke="#262626" stroke-width="1.4"/><rect x="584" y="488" width="118" height="118" rx="10" fill="#141414" stroke="#262626" stroke-width="1.4"/><rect x="710" y="488" width="118" height="118" rx="10" fill="url(#b4)"/><rect x="836" y="488" width="118" height="118" rx="10" fill="#141414" stroke="#262626" stroke-width="1.4"/><rect x="962" y="488" width="118" height="118" rx="10" fill="url(#b4)"/><rect x="80" y="614" width="118" height="118" rx="10" fill="#141414" stroke="#262626" stroke-width="1.4"/><rect x="206" y="614" width="118" height="118" rx="10" fill="#141414" stroke="#FA6863" stroke-width="1.4"/><rect x="332" y="614" width="118" height="118" rx="10" fill="#141414" stroke="#262626" stroke-width="1.4"/><rect x="458" y="614" width="118" height="118" rx="10" fill="url(#b4)"/><rect x="584" y="614" width="118" height="118" rx="10" fill="url(#b4)"/><rect x="710" y="614" width="118" height="118" rx="10" fill="#141414" stroke="#262626" stroke-width="1.4"/><rect x="836" y="614" width="118" height="118" rx="10" fill="#141414" stroke="#262626" stroke-width="1.4"/><rect x="962" y="614" width="118" height="118" rx="10" fill="#141414" stroke="#262626" stroke-width="1.4"/><rect x="0" y="720" width="1200" height="480" fill="#0A0A0A" opacity="0.8"/><g transform="translate(1068,60) scale(0.5360824742268041)" opacity="0.85"><path fill-rule="evenodd" clip-rule="evenodd" d="M95 46.8111H62.5824L67.2991 38.6422H90.2834L95 46.8111ZM76.7312 78.4522H67.2991L50.4032 49.1888H59.8354L76.7312 78.4522ZM5.71664 39.831L10.4333 48L5.71664 56.1689L1 48L5.71664 39.831ZM60.5219 8.18993L65.2385 16.3578L48.3438 45.6212L43.6272 37.4522L60.5219 8.18993ZM30.7615 59.7366H40.1937L23.9854 87.81L19.2688 79.6422L30.7615 59.7366ZM67.2991 57.3578L62.5824 49.1888H95L90.2834 57.3578H67.2991ZM76.7312 15.1689H67.2991L62.5824 7H72.0146L76.7312 15.1689ZM59.8354 46.8111H50.4032L67.2991 17.5477H76.7312L59.8354 46.8111ZM62.5824 89L67.2991 80.831H76.7312L72.0146 89H62.5824ZM46.9697 26.9055L42.2542 35.0745L26.0449 7H35.4781L46.9697 26.9055ZM26.0449 89L42.2542 60.9255L46.9697 69.0944L35.4781 89H26.0449ZM43.6272 58.5478L48.3438 50.3788L65.2385 79.6422L60.5219 87.81L43.6272 58.5478ZM23.9854 8.18993L40.1937 36.2634H30.7615L19.2688 16.3578L23.9854 8.18993ZM7.77718 57.3578L12.4927 49.1888H46.2833L41.5666 57.3578H7.77718ZM41.5666 38.6422L46.2833 46.8111H12.4927L7.77718 38.6422H41.5666Z" fill="#FFFFFF"/></g><text x="80" y="852" font-family="Geist,'Helvetica Neue',Arial,sans-serif" font-size="22" font-weight="600" letter-spacing="4.5" fill="#FA6863">MOST-ADOPTED WORKFLOW</text><text x="80" y="934" font-family="Geist,'Helvetica Neue',Arial,sans-serif" font-size="86" font-weight="300" fill="#FFFFFF" letter-spacing="-1.5"><tspan x="80" dy="0">Deployment</tspan><tspan x="80" dy="86.0">&amp; Quickstart</tspan></text><text x="80" y="1072" font-family="Geist,'Helvetica Neue',Arial,sans-serif" font-size="26" fill="#A1A1A1">76% of users · the fastest path to value</text><text x="80" y="1128" font-family="Geist,'Helvetica Neue',Arial,sans-serif" font-size="20" font-weight="500" letter-spacing="3" fill="#6B6B6B">COLLECTION</text></svg>