<svg xmlns="http://www.w3.org/2000/svg" width="1200" height="1200" viewBox="0 0 1200 1200"><defs></defs><rect width="1200" height="1200" fill="#0A0A0A"/><line x1="0" y1="0" x2="0" y2="1200" stroke="#262626" stroke-opacity="0.5" stroke-width="1"/><line x1="60" y1="0" x2="60" y2="1200" stroke="#262626" stroke-opacity="0.5" stroke-width="1"/><line x1="120" y1="0" x2="120" y2="1200" stroke="#262626" stroke-opacity="0.5" stroke-width="1"/><line x1="180" y1="0" x2="180" y2="1200" stroke="#262626" stroke-opacity="0.5" stroke-width="1"/><line x1="240" y1="0" x2="240" y2="1200" stroke="#262626" stroke-opacity="0.5" stroke-width="1"/><line x1="300" y1="0" x2="300" y2="1200" stroke="#262626" stroke-opacity="0.5" stroke-width="1"/><line x1="360" y1="0" x2="360" y2="1200" stroke="#262626" stroke-opacity="0.5" stroke-width="1"/><line x1="420" y1="0" x2="420" y2="1200" stroke="#262626" stroke-opacity="0.5" stroke-width="1"/><line x1="480" y1="0" x2="480" y2="1200" stroke="#262626" stroke-opacity="0.5" stroke-width="1"/><line x1="540" y1="0" x2="540" y2="1200" stroke="#262626" stroke-opacity="0.5" stroke-width="1"/><line x1="600" y1="0" x2="600" y2="1200" stroke="#262626" stroke-opacity="0.5" stroke-width="1"/><line x1="660" y1="0" x2="660" y2="1200" stroke="#262626" stroke-opacity="0.5" stroke-width="1"/><line x1="720" y1="0" x2="720" y2="1200" stroke="#262626" stroke-opacity="0.5" stroke-width="1"/><line x1="780" y1="0" x2="780" y2="1200" stroke="#262626" stroke-opacity="0.5" stroke-width="1"/><line x1="840" y1="0" x2="840" y2="1200" stroke="#262626" stroke-opacity="0.5" stroke-width="1"/><line x1="900" y1="0" x2="900" y2="1200" stroke="#262626" stroke-opacity="0.5" stroke-width="1"/><line x1="960" y1="0" x2="960" y2="1200" stroke="#262626" stroke-opacity="0.5" stroke-width="1"/><line x1="1020" y1="0" x2="1020" y2="1200" stroke="#262626" stroke-opacity="0.5" stroke-width="1"/><line x1="1080" y1="0" x2="1080" y2="1200" stroke="#262626" stroke-opacity="0.5" stroke-width="1"/><line x1="1140" y1="0" x2="1140" y2="1200" stroke="#262626" stroke-opacity="0.5" stroke-width="1"/><line x1="1200" y1="0" x2="1200" y2="1200" stroke="#262626" stroke-opacity="0.5" stroke-width="1"/><line x1="0" y1="0" x2="1200" y2="0" stroke="#262626" stroke-opacity="0.5" stroke-width="1"/><line x1="0" y1="60" x2="1200" y2="60" stroke="#262626" stroke-opacity="0.5" stroke-width="1"/><line x1="0" y1="120" x2="1200" y2="120" stroke="#262626" stroke-opacity="0.5" stroke-width="1"/><line x1="0" y1="180" x2="1200" y2="180" stroke="#262626" stroke-opacity="0.5" stroke-width="1"/><line x1="0" y1="240" x2="1200" y2="240" stroke="#262626" stroke-opacity="0.5" stroke-width="1"/><line x1="0" y1="300" x2="1200" y2="300" stroke="#262626" stroke-opacity="0.5" stroke-width="1"/><line x1="0" y1="360" x2="1200" y2="360" stroke="#262626" stroke-opacity="0.5" stroke-width="1"/><line x1="0" y1="420" x2="1200" y2="420" stroke="#262626" stroke-opacity="0.5" stroke-width="1"/><line x1="0" y1="480" x2="1200" y2="480" stroke="#262626" stroke-opacity="0.5" stroke-width="1"/><line x1="0" y1="540" x2="1200" y2="540" stroke="#262626" stroke-opacity="0.5" stroke-width="1"/><line x1="0" y1="600" x2="1200" y2="600" stroke="#262626" stroke-opacity="0.5" stroke-width="1"/><line x1="0" y1="660" x2="1200" y2="660" stroke="#262626" stroke-opacity="0.5" stroke-width="1"/><line x1="0" y1="720" x2="1200" y2="720" stroke="#262626" stroke-opacity="0.5" stroke-width="1"/><line x1="0" y1="780" x2="1200" y2="780" stroke="#262626" stroke-opacity="0.5" stroke-width="1"/><line x1="0" y1="840" x2="1200" y2="840" stroke="#262626" stroke-opacity="0.5" stroke-width="1"/><line x1="0" y1="900" x2="1200" y2="900" stroke="#262626" stroke-opacity="0.5" stroke-width="1"/><line x1="0" y1="960" x2="1200" y2="960" stroke="#262626" stroke-opacity="0.5" stroke-width="1"/><line x1="0" y1="1020" x2="1200" y2="1020" stroke="#262626" stroke-opacity="0.5" stroke-width="1"/><line x1="0" y1="1080" x2="1200" y2="1080" stroke="#262626" stroke-opacity="0.5" stroke-width="1"/><line x1="0" y1="1140" x2="1200" y2="1140" stroke="#262626" stroke-opacity="0.5" stroke-width="1"/><line x1="0" y1="1200" x2="1200" y2="1200" stroke="#262626" stroke-opacity="0.5" stroke-width="1"/><g transform="translate(700,110) scale(3.917525773195876)" opacity="0.9"><path fill-rule="evenodd" clip-rule="evenodd" d="M95 46.8111H62.5824L67.2991 38.6422H90.2834L95 46.8111ZM76.7312 78.4522H67.2991L50.4032 49.1888H59.8354L76.7312 78.4522ZM5.71664 39.831L10.4333 48L5.71664 56.1689L1 48L5.71664 39.831ZM60.5219 8.18993L65.2385 16.3578L48.3438 45.6212L43.6272 37.4522L60.5219 8.18993ZM30.7615 59.7366H40.1937L23.9854 87.81L19.2688 79.6422L30.7615 59.7366ZM67.2991 57.3578L62.5824 49.1888H95L90.2834 57.3578H67.2991ZM76.7312 15.1689H67.2991L62.5824 7H72.0146L76.7312 15.1689ZM59.8354 46.8111H50.4032L67.2991 17.5477H76.7312L59.8354 46.8111ZM62.5824 89L67.2991 80.831H76.7312L72.0146 89H62.5824ZM46.9697 26.9055L42.2542 35.0745L26.0449 7H35.4781L46.9697 26.9055ZM26.0449 89L42.2542 60.9255L46.9697 69.0944L35.4781 89H26.0449ZM43.6272 58.5478L48.3438 50.3788L65.2385 79.6422L60.5219 87.81L43.6272 58.5478ZM23.9854 8.18993L40.1937 36.2634H30.7615L19.2688 16.3578L23.9854 8.18993ZM7.77718 57.3578L12.4927 49.1888H46.2833L41.5666 57.3578H7.77718ZM41.5666 38.6422L46.2833 46.8111H12.4927L7.77718 38.6422H41.5666Z" fill="#3AD598"/></g><rect x="0" y="720" width="1200" height="480" fill="#0A0A0A" opacity="0.82"/><text x="80" y="852" font-family="Geist,'Helvetica Neue',Arial,sans-serif" font-size="22" font-weight="600" letter-spacing="4.5" fill="#3AD598">FIELD PLAYBOOK</text><text x="80" y="934" font-family="Geist,'Helvetica Neue',Arial,sans-serif" font-size="86" font-weight="300" fill="#FFFFFF" letter-spacing="-1.5"><tspan x="80" dy="0">Solution</tspan><tspan x="80" dy="86.0">Engineering</tspan></text><text x="80" y="1072" font-family="Geist,'Helvetica Neue',Arial,sans-serif" font-size="26" fill="#A1A1A1">Patterns from the highest-impact builds</text><text x="80" y="1128" font-family="Geist,'Helvetica Neue',Arial,sans-serif" font-size="20" font-weight="500" letter-spacing="3" fill="#6B6B6B">COLLECTION</text></svg>